<?xml version="1.0" encoding="UTF-8"?>
<svg xmlns="http://www.w3.org/2000/svg" xmlns:xlink="http://www.w3.org/1999/xlink" fill-opacity="1" color-rendering="auto" color-interpolation="auto" stroke="black" text-rendering="auto" stroke-linecap="square" width="595" stroke-miterlimit="10" stroke-opacity="1" shape-rendering="auto" fill="black" stroke-dasharray="none" font-weight="normal" stroke-width="1" height="795" font-family="'Dialog'" font-style="normal" stroke-linejoin="miter" font-size="12" stroke-dashoffset="0" image-rendering="auto">
  <!--Generated by ySVG-->
  <defs id="genericDefs"/>
  <g>
    <defs id="defs1">
      <clipPath clipPathUnits="userSpaceOnUse" id="clipPath1">
        <path d="M0 0 L595 0 L595 795 L0 795 L0 0 Z"/>
      </clipPath>
      <clipPath clipPathUnits="userSpaceOnUse" id="clipPath2">
        <path d="M182 307 L777 307 L777 1102 L182 1102 L182 307 Z"/>
      </clipPath>
    </defs>
    <g fill="white" transform="translate(-182,-307)" stroke="white">
      <rect x="182" width="595" height="795" y="307" clip-path="url(#clipPath2)" stroke="none"/>
    </g>
    <g fill="rgb(255,204,0)" transform="matrix(1,0,0,1,-182,-307)" stroke="rgb(255,204,0)">
      <rect x="373.2747" width="53.593" height="30" y="955.9775" clip-path="url(#clipPath2)" stroke="none"/>
    </g>
    <g stroke-miterlimit="1.45" font-family="sans-serif" transform="matrix(1,0,0,1,-182,-307)" stroke-linecap="butt">
      <text x="376.2616" xml:space="preserve" y="975.5127" clip-path="url(#clipPath2)" stroke="none">all fours</text>
    </g>
    <g fill="yellow" transform="matrix(1,0,0,1,-182,-307)" stroke="yellow">
      <rect x="373.2747" width="1" height="30" y="955.9775" clip-path="url(#clipPath2)" stroke="none"/>
      <rect x="374.2747" width="51.593" height="1" y="955.9775" clip-path="url(#clipPath2)" stroke="none"/>
      <rect x="374.2747" y="984.9775" clip-path="url(#clipPath2)" fill="rgb(178,142,0)" width="52.593" height="1" stroke="none"/>
      <rect x="425.8677" y="955.9775" clip-path="url(#clipPath2)" fill="rgb(178,142,0)" width="1" height="29" stroke="none"/>
      <rect x="293.0712" y="981.9775" clip-path="url(#clipPath2)" fill="rgb(255,204,0)" width="30" height="30" stroke="none"/>
    </g>
    <g stroke-miterlimit="1.45" font-family="sans-serif" transform="matrix(1,0,0,1,-182,-307)" stroke-linecap="butt">
      <text x="296.6894" xml:space="preserve" y="1001.5127" clip-path="url(#clipPath2)" stroke="none">cow</text>
    </g>
    <g fill="yellow" transform="matrix(1,0,0,1,-182,-307)" stroke="yellow">
      <rect x="293.0712" width="1" height="30" y="981.9775" clip-path="url(#clipPath2)" stroke="none"/>
      <rect x="294.0712" width="28" height="1" y="981.9775" clip-path="url(#clipPath2)" stroke="none"/>
      <rect x="294.0712" y="1010.9775" clip-path="url(#clipPath2)" fill="rgb(178,142,0)" width="29" height="1" stroke="none"/>
      <rect x="322.0712" y="981.9775" clip-path="url(#clipPath2)" fill="rgb(178,142,0)" width="1" height="29" stroke="none"/>
      <rect x="274.0712" y="918.9775" clip-path="url(#clipPath2)" fill="rgb(255,204,0)" width="30" height="30" stroke="none"/>
    </g>
    <g stroke-miterlimit="1.45" font-family="sans-serif" transform="matrix(1,0,0,1,-182,-307)" stroke-linecap="butt">
      <text x="280.4403" xml:space="preserve" y="938.5127" clip-path="url(#clipPath2)" stroke="none">cat</text>
    </g>
    <g fill="yellow" transform="matrix(1,0,0,1,-182,-307)" stroke="yellow">
      <rect x="274.0712" width="1" height="30" y="918.9775" clip-path="url(#clipPath2)" stroke="none"/>
      <rect x="275.0712" width="28" height="1" y="918.9775" clip-path="url(#clipPath2)" stroke="none"/>
      <rect x="275.0712" y="947.9775" clip-path="url(#clipPath2)" fill="rgb(178,142,0)" width="29" height="1" stroke="none"/>
      <rect x="303.0712" y="918.9775" clip-path="url(#clipPath2)" fill="rgb(178,142,0)" width="1" height="29" stroke="none"/>
      <rect x="466.9288" y="914.9775" clip-path="url(#clipPath2)" fill="rgb(255,204,0)" width="76.2848" height="30" stroke="none"/>
    </g>
    <g stroke-miterlimit="1.45" font-family="sans-serif" transform="matrix(1,0,0,1,-182,-307)" stroke-linecap="butt">
      <text x="470.8349" xml:space="preserve" y="934.5127" clip-path="url(#clipPath2)" stroke="none">child's pose</text>
    </g>
    <g fill="yellow" transform="matrix(1,0,0,1,-182,-307)" stroke="yellow">
      <rect x="466.9288" width="1" height="30" y="914.9775" clip-path="url(#clipPath2)" stroke="none"/>
      <rect x="467.9288" width="74.2848" height="1" y="914.9775" clip-path="url(#clipPath2)" stroke="none"/>
      <rect x="467.9288" y="943.9775" clip-path="url(#clipPath2)" fill="rgb(178,142,0)" width="75.2848" height="1" stroke="none"/>
      <rect x="542.2136" y="914.9775" clip-path="url(#clipPath2)" fill="rgb(178,142,0)" width="1" height="29" stroke="none"/>
      <rect x="335.8712" y="866.9775" clip-path="url(#clipPath2)" fill="rgb(255,204,0)" width="100.4" height="30" stroke="none"/>
    </g>
    <g stroke-miterlimit="1.45" font-family="sans-serif" transform="matrix(1,0,0,1,-182,-307)" stroke-linecap="butt">
      <text x="342.9931" xml:space="preserve" y="886.5127" clip-path="url(#clipPath2)" stroke="none">downward dog</text>
    </g>
    <g fill="yellow" transform="matrix(1,0,0,1,-182,-307)" stroke="yellow">
      <rect x="335.8712" width="1" height="30" y="866.9775" clip-path="url(#clipPath2)" stroke="none"/>
      <rect x="336.8712" width="98.4" height="1" y="866.9775" clip-path="url(#clipPath2)" stroke="none"/>
      <rect x="336.8712" y="895.9775" clip-path="url(#clipPath2)" fill="rgb(178,142,0)" width="99.4" height="1" stroke="none"/>
      <rect x="435.2712" y="866.9775" clip-path="url(#clipPath2)" fill="rgb(178,142,0)" width="1" height="29" stroke="none"/>
      <path fill="rgb(255,204,0)" d="M623.071 948.9766 L649.571 918.9763 L702.571 918.9763 L729.0712 948.9766 Z" clip-path="url(#clipPath2)" fill-rule="evenodd" stroke="none"/>
    </g>
    <g stroke-miterlimit="1.45" font-family="sans-serif" transform="matrix(1,0,0,1,-182,-307)" stroke-linecap="butt">
      <text x="640.0038" xml:space="preserve" y="938.5127" clip-path="url(#clipPath2)" stroke="none">arms to side</text>
      <path fill="none" d="M623.071 948.9766 L649.571 918.9763 L702.571 918.9763 L729.0712 948.9766 Z" fill-rule="evenodd" clip-path="url(#clipPath2)"/>
    </g>
    <g fill="rgb(255,204,0)" transform="matrix(1,0,0,1,-182,-307)" stroke="rgb(255,204,0)">
      <rect x="557.2747" width="53.593" height="30" y="966.9775" clip-path="url(#clipPath2)" stroke="none"/>
    </g>
    <g stroke-miterlimit="1.45" font-family="sans-serif" transform="matrix(1,0,0,1,-182,-307)" stroke-linecap="butt">
      <text x="561.9169" xml:space="preserve" y="986.5127" clip-path="url(#clipPath2)" stroke="none">dolphin</text>
    </g>
    <g fill="yellow" transform="matrix(1,0,0,1,-182,-307)" stroke="yellow">
      <rect x="557.2747" width="1" height="30" y="966.9775" clip-path="url(#clipPath2)" stroke="none"/>
      <rect x="558.2747" width="51.593" height="1" y="966.9775" clip-path="url(#clipPath2)" stroke="none"/>
      <rect x="558.2747" y="995.9775" clip-path="url(#clipPath2)" fill="rgb(178,142,0)" width="52.593" height="1" stroke="none"/>
      <rect x="609.8677" y="966.9775" clip-path="url(#clipPath2)" fill="rgb(178,142,0)" width="1" height="29" stroke="none"/>
      <rect x="473.3712" y="814.9775" clip-path="url(#clipPath2)" fill="rgb(255,204,0)" width="100.4" height="30" stroke="none"/>
    </g>
    <g stroke-miterlimit="1.45" font-family="sans-serif" transform="matrix(1,0,0,1,-182,-307)" stroke-linecap="butt">
      <text x="479.4823" xml:space="preserve" y="834.5127" clip-path="url(#clipPath2)" stroke="none">lay on stomach</text>
    </g>
    <g fill="yellow" transform="matrix(1,0,0,1,-182,-307)" stroke="yellow">
      <rect x="473.3712" width="1" height="30" y="814.9775" clip-path="url(#clipPath2)" stroke="none"/>
      <rect x="474.3712" width="98.4" height="1" y="814.9775" clip-path="url(#clipPath2)" stroke="none"/>
      <rect x="474.3712" y="843.9775" clip-path="url(#clipPath2)" fill="rgb(178,142,0)" width="99.4" height="1" stroke="none"/>
      <rect x="572.7712" y="814.9775" clip-path="url(#clipPath2)" fill="rgb(178,142,0)" width="1" height="29" stroke="none"/>
      <rect x="613.3941" y="864.9775" clip-path="url(#clipPath2)" fill="rgb(255,204,0)" width="65" height="30" stroke="none"/>
    </g>
    <g stroke-miterlimit="1.45" font-family="sans-serif" transform="matrix(1,0,0,1,-182,-307)" stroke-linecap="butt">
      <text x="618.0474" xml:space="preserve" y="884.5127" clip-path="url(#clipPath2)" stroke="none">bow pose</text>
    </g>
    <g fill="yellow" transform="matrix(1,0,0,1,-182,-307)" stroke="yellow">
      <rect x="613.3941" width="1" height="30" y="864.9775" clip-path="url(#clipPath2)" stroke="none"/>
      <rect x="614.3941" width="63" height="1" y="864.9775" clip-path="url(#clipPath2)" stroke="none"/>
      <rect x="614.3941" y="893.9775" clip-path="url(#clipPath2)" fill="rgb(178,142,0)" width="64" height="1" stroke="none"/>
      <rect x="677.3941" y="864.9775" clip-path="url(#clipPath2)" fill="rgb(178,142,0)" width="1" height="29" stroke="none"/>
      <rect x="619.2517" y="800.4888" clip-path="url(#clipPath2)" fill="rgb(255,204,0)" width="76.2848" height="30" stroke="none"/>
    </g>
    <g stroke-miterlimit="1.45" font-family="sans-serif" transform="matrix(1,0,0,1,-182,-307)" stroke-linecap="butt">
      <text x="626.5269" xml:space="preserve" y="820.0239" clip-path="url(#clipPath2)" stroke="none">one leg up</text>
    </g>
    <g fill="yellow" transform="matrix(1,0,0,1,-182,-307)" stroke="yellow">
      <rect x="619.2517" width="1" height="30" y="800.4888" clip-path="url(#clipPath2)" stroke="none"/>
      <rect x="620.2517" width="74.2848" height="1" y="800.4888" clip-path="url(#clipPath2)" stroke="none"/>
      <rect x="620.2517" y="829.4888" clip-path="url(#clipPath2)" fill="rgb(178,142,0)" width="75.2848" height="1" stroke="none"/>
      <rect x="694.5365" y="800.4888" clip-path="url(#clipPath2)" fill="rgb(178,142,0)" width="1" height="29" stroke="none"/>
      <rect x="613.3941" y="702.4888" clip-path="url(#clipPath2)" fill="rgb(255,204,0)" width="83" height="24" stroke="none"/>
    </g>
    <g stroke-miterlimit="1.45" font-family="sans-serif" transform="matrix(1,0,0,1,-182,-307)" stroke-linecap="butt">
      <text x="618.2906" xml:space="preserve" y="719.0239" clip-path="url(#clipPath2)" stroke="none">both legs up</text>
    </g>
    <g fill="yellow" transform="matrix(1,0,0,1,-182,-307)" stroke="yellow">
      <rect x="613.3941" width="1" height="24" y="702.4888" clip-path="url(#clipPath2)" stroke="none"/>
      <rect x="614.3941" width="81" height="1" y="702.4888" clip-path="url(#clipPath2)" stroke="none"/>
      <rect x="614.3941" y="725.4888" clip-path="url(#clipPath2)" fill="rgb(178,142,0)" width="82" height="1" stroke="none"/>
      <rect x="695.3941" y="702.4888" clip-path="url(#clipPath2)" fill="rgb(178,142,0)" width="1" height="23" stroke="none"/>
      <rect x="591.7136" y="642.4888" clip-path="url(#clipPath2)" fill="rgb(255,204,0)" width="161" height="30" stroke="none"/>
    </g>
    <g stroke-miterlimit="1.45" font-family="sans-serif" transform="matrix(1,0,0,1,-182,-307)" stroke-linecap="butt">
      <text x="596.9617" xml:space="preserve" y="662.0239" clip-path="url(#clipPath2)" stroke="none">supported shoulder stand</text>
    </g>
    <g fill="yellow" transform="matrix(1,0,0,1,-182,-307)" stroke="yellow">
      <rect x="591.7136" width="1" height="30" y="642.4888" clip-path="url(#clipPath2)" stroke="none"/>
      <rect x="592.7136" width="159" height="1" y="642.4888" clip-path="url(#clipPath2)" stroke="none"/>
      <rect x="592.7136" y="671.4888" clip-path="url(#clipPath2)" fill="rgb(178,142,0)" width="160" height="1" stroke="none"/>
      <rect x="751.7136" y="642.4888" clip-path="url(#clipPath2)" fill="rgb(178,142,0)" width="1" height="29" stroke="none"/>
      <rect x="664.3748" y="582.4888" clip-path="url(#clipPath2)" fill="rgb(255,204,0)" width="76.2848" height="30" stroke="none"/>
    </g>
    <g stroke-miterlimit="1.45" font-family="sans-serif" transform="matrix(1,0,0,1,-182,-307)" stroke-linecap="butt">
      <text x="672.9362" xml:space="preserve" y="602.0239" clip-path="url(#clipPath2)" stroke="none">plow pose</text>
    </g>
    <g fill="yellow" transform="matrix(1,0,0,1,-182,-307)" stroke="yellow">
      <rect x="664.3748" width="1" height="30" y="582.4888" clip-path="url(#clipPath2)" stroke="none"/>
      <rect x="665.3748" width="74.2848" height="1" y="582.4888" clip-path="url(#clipPath2)" stroke="none"/>
      <rect x="665.3748" y="611.4888" clip-path="url(#clipPath2)" fill="rgb(178,142,0)" width="75.2848" height="1" stroke="none"/>
      <rect x="739.6596" y="582.4888" clip-path="url(#clipPath2)" fill="rgb(178,142,0)" width="1" height="29" stroke="none"/>
      <rect x="644.0172" y="470.9663" clip-path="url(#clipPath2)" fill="rgb(255,204,0)" width="117" height="30" stroke="none"/>
    </g>
    <g stroke-miterlimit="1.45" font-family="sans-serif" transform="matrix(1,0,0,1,-182,-307)" stroke-linecap="butt">
      <text x="650.5329" xml:space="preserve" y="490.5014" clip-path="url(#clipPath2)" stroke="none">ear pressure pose</text>
    </g>
    <g fill="yellow" transform="matrix(1,0,0,1,-182,-307)" stroke="yellow">
      <rect x="644.0172" width="1" height="30" y="470.9663" clip-path="url(#clipPath2)" stroke="none"/>
      <rect x="645.0172" width="115" height="1" y="470.9663" clip-path="url(#clipPath2)" stroke="none"/>
      <rect x="645.0172" y="499.9663" clip-path="url(#clipPath2)" fill="rgb(178,142,0)" width="116" height="1" stroke="none"/>
      <rect x="760.0172" y="470.9663" clip-path="url(#clipPath2)" fill="rgb(178,142,0)" width="1" height="29" stroke="none"/>
      <rect x="480.2747" y="996.9775" clip-path="url(#clipPath2)" fill="rgb(255,204,0)" width="47" height="30" stroke="none"/>
    </g>
    <g stroke-miterlimit="1.45" font-family="sans-serif" transform="matrix(1,0,0,1,-182,-307)" stroke-linecap="butt">
      <text x="487.72" xml:space="preserve" y="1016.5127" clip-path="url(#clipPath2)" stroke="none">plank</text>
    </g>
    <g fill="yellow" transform="matrix(1,0,0,1,-182,-307)" stroke="yellow">
      <rect x="480.2747" width="1" height="30" y="996.9775" clip-path="url(#clipPath2)" stroke="none"/>
      <rect x="481.2747" width="45" height="1" y="996.9775" clip-path="url(#clipPath2)" stroke="none"/>
      <rect x="481.2747" y="1025.9775" clip-path="url(#clipPath2)" fill="rgb(178,142,0)" width="46" height="1" stroke="none"/>
      <rect x="526.2747" y="996.9775" clip-path="url(#clipPath2)" fill="rgb(178,142,0)" width="1" height="29" stroke="none"/>
      <rect x="353.0712" y="1026.9775" clip-path="url(#clipPath2)" fill="rgb(255,204,0)" width="70" height="30" stroke="none"/>
    </g>
    <g stroke-miterlimit="1.45" font-family="sans-serif" transform="matrix(1,0,0,1,-182,-307)" stroke-linecap="butt">
      <text x="359.1376" xml:space="preserve" y="1046.5127" clip-path="url(#clipPath2)" stroke="none">wild thing</text>
    </g>
    <g fill="yellow" transform="matrix(1,0,0,1,-182,-307)" stroke="yellow">
      <rect x="353.0712" width="1" height="30" y="1026.9775" clip-path="url(#clipPath2)" stroke="none"/>
      <rect x="354.0712" width="68" height="1" y="1026.9775" clip-path="url(#clipPath2)" stroke="none"/>
      <rect x="354.0712" y="1055.9775" clip-path="url(#clipPath2)" fill="rgb(178,142,0)" width="69" height="1" stroke="none"/>
      <rect x="422.0712" y="1026.9775" clip-path="url(#clipPath2)" fill="rgb(178,142,0)" width="1" height="29" stroke="none"/>
      <rect x="466.9288" y="1056.9775" clip-path="url(#clipPath2)" fill="rgb(255,204,0)" width="76.2848" height="30" stroke="none"/>
    </g>
    <g stroke-miterlimit="1.45" font-family="sans-serif" transform="matrix(1,0,0,1,-182,-307)" stroke-linecap="butt">
      <text x="472.4462" xml:space="preserve" y="1076.5127" clip-path="url(#clipPath2)" stroke="none">chaturanga</text>
    </g>
    <g fill="yellow" transform="matrix(1,0,0,1,-182,-307)" stroke="yellow">
      <rect x="466.9288" width="1" height="30" y="1056.9775" clip-path="url(#clipPath2)" stroke="none"/>
      <rect x="467.9288" width="74.2848" height="1" y="1056.9775" clip-path="url(#clipPath2)" stroke="none"/>
      <rect x="467.9288" y="1085.9775" clip-path="url(#clipPath2)" fill="rgb(178,142,0)" width="75.2848" height="1" stroke="none"/>
      <rect x="542.2136" y="1056.9775" clip-path="url(#clipPath2)" fill="rgb(178,142,0)" width="1" height="29" stroke="none"/>
      <rect x="610.8677" y="1026.9775" clip-path="url(#clipPath2)" fill="rgb(255,204,0)" width="76.2848" height="30" stroke="none"/>
    </g>
    <g stroke-miterlimit="1.45" font-family="sans-serif" transform="matrix(1,0,0,1,-182,-307)" stroke-linecap="butt">
      <text x="619.1448" xml:space="preserve" y="1046.5127" clip-path="url(#clipPath2)" stroke="none">side plank</text>
    </g>
    <g fill="yellow" transform="matrix(1,0,0,1,-182,-307)" stroke="yellow">
      <rect x="610.8677" width="1" height="30" y="1026.9775" clip-path="url(#clipPath2)" stroke="none"/>
      <rect x="611.8677" width="74.2848" height="1" y="1026.9775" clip-path="url(#clipPath2)" stroke="none"/>
      <rect x="611.8677" y="1055.9775" clip-path="url(#clipPath2)" fill="rgb(178,142,0)" width="75.2848" height="1" stroke="none"/>
      <rect x="686.1525" y="1026.9775" clip-path="url(#clipPath2)" fill="rgb(178,142,0)" width="1" height="29" stroke="none"/>
      <rect x="368.3212" y="657.9775" clip-path="url(#clipPath2)" fill="rgb(255,204,0)" width="98.5" height="30" stroke="none"/>
    </g>
    <g stroke-miterlimit="1.45" font-family="sans-serif" transform="matrix(1,0,0,1,-182,-307)" stroke-linecap="butt">
      <text x="375.7382" xml:space="preserve" y="677.5127" clip-path="url(#clipPath2)" stroke="none">standing bend</text>
    </g>
    <g fill="yellow" transform="matrix(1,0,0,1,-182,-307)" stroke="yellow">
      <rect x="368.3212" width="1" height="30" y="657.9775" clip-path="url(#clipPath2)" stroke="none"/>
      <rect x="369.3212" width="96.5" height="1" y="657.9775" clip-path="url(#clipPath2)" stroke="none"/>
      <rect x="369.3212" y="686.9775" clip-path="url(#clipPath2)" fill="rgb(178,142,0)" width="97.5" height="1" stroke="none"/>
      <rect x="465.8212" y="657.9775" clip-path="url(#clipPath2)" fill="rgb(178,142,0)" width="1" height="29" stroke="none"/>
      <rect x="197.4411" y="807.9775" clip-path="url(#clipPath2)" fill="rgb(255,204,0)" width="161" height="30" stroke="none"/>
    </g>
    <g stroke-miterlimit="1.45" font-family="sans-serif" transform="matrix(1,0,0,1,-182,-307)" stroke-linecap="butt">
      <text x="204.1862" xml:space="preserve" y="827.5127" clip-path="url(#clipPath2)" stroke="none">down dog, one leg raised</text>
    </g>
    <g fill="yellow" transform="matrix(1,0,0,1,-182,-307)" stroke="yellow">
      <rect x="197.4411" width="1" height="30" y="807.9775" clip-path="url(#clipPath2)" stroke="none"/>
      <rect x="198.4411" width="159" height="1" y="807.9775" clip-path="url(#clipPath2)" stroke="none"/>
      <rect x="198.4411" y="836.9775" clip-path="url(#clipPath2)" fill="rgb(178,142,0)" width="160" height="1" stroke="none"/>
      <rect x="357.4411" y="807.9775" clip-path="url(#clipPath2)" fill="rgb(178,142,0)" width="1" height="29" stroke="none"/>
      <rect x="210.0958" y="747.9775" clip-path="url(#clipPath2)" fill="rgb(255,204,0)" width="92.3813" height="30" stroke="none"/>
    </g>
    <g stroke-miterlimit="1.45" font-family="sans-serif" transform="matrix(1,0,0,1,-182,-307)" stroke-linecap="butt">
      <text x="222.8382" xml:space="preserve" y="767.5127" clip-path="url(#clipPath2)" stroke="none">flipped dog</text>
    </g>
    <g fill="yellow" transform="matrix(1,0,0,1,-182,-307)" stroke="yellow">
      <rect x="210.0958" width="1" height="30" y="747.9775" clip-path="url(#clipPath2)" stroke="none"/>
      <rect x="211.0958" width="90.3813" height="1" y="747.9775" clip-path="url(#clipPath2)" stroke="none"/>
      <rect x="211.0958" y="776.9775" clip-path="url(#clipPath2)" fill="rgb(178,142,0)" width="91.3813" height="1" stroke="none"/>
      <rect x="301.477" y="747.9775" clip-path="url(#clipPath2)" fill="rgb(178,142,0)" width="1" height="29" stroke="none"/>
      <rect x="294.4288" y="560.4663" clip-path="url(#clipPath2)" fill="rgb(255,204,0)" width="161" height="30" stroke="none"/>
    </g>
    <g stroke-miterlimit="1.45" font-family="sans-serif" transform="matrix(1,0,0,1,-182,-307)" stroke-linecap="butt">
      <text x="300.8487" xml:space="preserve" y="580.0014" clip-path="url(#clipPath2)" stroke="none">stand straight (mountain)</text>
    </g>
    <g fill="yellow" transform="matrix(1,0,0,1,-182,-307)" stroke="yellow">
      <rect x="294.4288" width="1" height="30" y="560.4663" clip-path="url(#clipPath2)" stroke="none"/>
      <rect x="295.4288" width="159" height="1" y="560.4663" clip-path="url(#clipPath2)" stroke="none"/>
      <rect x="295.4288" y="589.4663" clip-path="url(#clipPath2)" fill="rgb(178,142,0)" width="160" height="1" stroke="none"/>
      <rect x="454.4288" y="560.4663" clip-path="url(#clipPath2)" fill="rgb(178,142,0)" width="1" height="29" stroke="none"/>
      <rect x="294.4288" y="456.0225" clip-path="url(#clipPath2)" fill="rgb(255,204,0)" width="95.5" height="30" stroke="none"/>
    </g>
    <g stroke-miterlimit="1.45" font-family="sans-serif" transform="matrix(1,0,0,1,-182,-307)" stroke-linecap="butt">
      <text x="300.9933" xml:space="preserve" y="475.5576" clip-path="url(#clipPath2)" stroke="none">happy camper</text>
    </g>
    <g fill="yellow" transform="matrix(1,0,0,1,-182,-307)" stroke="yellow">
      <rect x="294.4288" width="1" height="30" y="456.0225" clip-path="url(#clipPath2)" stroke="none"/>
      <rect x="295.4288" width="93.5" height="1" y="456.0225" clip-path="url(#clipPath2)" stroke="none"/>
      <rect x="295.4288" y="485.0225" clip-path="url(#clipPath2)" fill="rgb(178,142,0)" width="94.5" height="1" stroke="none"/>
      <rect x="388.9288" y="456.0225" clip-path="url(#clipPath2)" fill="rgb(178,142,0)" width="1" height="29" stroke="none"/>
      <rect x="581.8785" y="348.5562" clip-path="url(#clipPath2)" fill="rgb(255,204,0)" width="76.2848" height="29.9101" stroke="none"/>
    </g>
    <g stroke-miterlimit="1.45" font-family="sans-serif" transform="matrix(1,0,0,1,-182,-307)" stroke-linecap="butt">
      <text x="592.8744" xml:space="preserve" y="368.0464" clip-path="url(#clipPath2)" stroke="none">tree pose</text>
    </g>
    <g fill="yellow" transform="matrix(1,0,0,1,-182,-307)" stroke="yellow">
      <rect x="581.8785" width="1" height="29.9101" y="348.5562" clip-path="url(#clipPath2)" stroke="none"/>
      <rect x="582.8785" width="74.2848" height="1" y="348.5562" clip-path="url(#clipPath2)" stroke="none"/>
      <rect x="582.8785" y="377.4663" clip-path="url(#clipPath2)" fill="rgb(178,142,0)" width="75.2848" height="1" stroke="none"/>
      <rect x="657.1633" y="348.5562" clip-path="url(#clipPath2)" fill="rgb(178,142,0)" width="1" height="28.9101" stroke="none"/>
      <rect x="308.8212" y="402.0225" clip-path="url(#clipPath2)" fill="rgb(255,204,0)" width="374.0177" height="29.9101" stroke="none"/>
    </g>
    <g stroke-miterlimit="1.45" font-family="sans-serif" transform="matrix(1,0,0,1,-182,-307)" stroke-linecap="butt">
      <text x="321.6748" xml:space="preserve" y="421.5127" clip-path="url(#clipPath2)" stroke="none">warrior 3 (bent forward on one leg, arms extended forward)</text>
    </g>
    <g fill="yellow" transform="matrix(1,0,0,1,-182,-307)" stroke="yellow">
      <rect x="308.8212" width="1" height="29.9101" y="402.0225" clip-path="url(#clipPath2)" stroke="none"/>
      <rect x="309.8212" width="372.0177" height="1" y="402.0225" clip-path="url(#clipPath2)" stroke="none"/>
      <rect x="309.8212" y="430.9325" clip-path="url(#clipPath2)" fill="rgb(178,142,0)" width="373.0177" height="1" stroke="none"/>
      <rect x="681.8389" y="402.0225" clip-path="url(#clipPath2)" fill="rgb(178,142,0)" width="1" height="28.9101" stroke="none"/>
      <rect x="447.0712" y="481.9775" clip-path="url(#clipPath2)" fill="rgb(255,204,0)" width="65" height="30" stroke="none"/>
    </g>
    <g stroke-miterlimit="1.45" font-family="sans-serif" transform="matrix(1,0,0,1,-182,-307)" stroke-linecap="butt">
      <text x="453.1571" xml:space="preserve" y="501.5127" clip-path="url(#clipPath2)" stroke="none">warrior 1</text>
    </g>
    <g fill="yellow" transform="matrix(1,0,0,1,-182,-307)" stroke="yellow">
      <rect x="447.0712" width="1" height="30" y="481.9775" clip-path="url(#clipPath2)" stroke="none"/>
      <rect x="448.0712" width="63" height="1" y="481.9775" clip-path="url(#clipPath2)" stroke="none"/>
      <rect x="448.0712" y="510.9775" clip-path="url(#clipPath2)" fill="rgb(178,142,0)" width="64" height="1" stroke="none"/>
      <rect x="511.0712" y="481.9775" clip-path="url(#clipPath2)" fill="rgb(178,142,0)" width="1" height="29" stroke="none"/>
      <rect x="465.5501" y="322.0675" clip-path="url(#clipPath2)" fill="rgb(255,204,0)" width="85.59" height="29.9101" stroke="none"/>
    </g>
    <g stroke-miterlimit="1.45" font-family="sans-serif" transform="matrix(1,0,0,1,-182,-307)" stroke-linecap="butt">
      <text x="472.8989" xml:space="preserve" y="341.5576" clip-path="url(#clipPath2)" stroke="none">dancer pose</text>
    </g>
    <g fill="yellow" transform="matrix(1,0,0,1,-182,-307)" stroke="yellow">
      <rect x="465.5501" width="1" height="29.9101" y="322.0675" clip-path="url(#clipPath2)" stroke="none"/>
      <rect x="466.5501" width="83.59" height="1" y="322.0675" clip-path="url(#clipPath2)" stroke="none"/>
      <rect x="466.5501" y="350.9775" clip-path="url(#clipPath2)" fill="rgb(178,142,0)" width="84.59" height="1" stroke="none"/>
      <rect x="550.1402" y="322.0675" clip-path="url(#clipPath2)" fill="rgb(178,142,0)" width="1" height="28.9101" stroke="none"/>
      <rect x="336.3139" y="342.0225" clip-path="url(#clipPath2)" fill="rgb(255,204,0)" width="99.2363" height="30" stroke="none"/>
    </g>
    <g stroke-miterlimit="1.45" font-family="sans-serif" transform="matrix(1,0,0,1,-182,-307)" stroke-linecap="butt">
      <text x="343.1117" xml:space="preserve" y="361.5576" clip-path="url(#clipPath2)" stroke="none">standing splits</text>
    </g>
    <g fill="yellow" transform="matrix(1,0,0,1,-182,-307)" stroke="yellow">
      <rect x="336.3139" width="1" height="30" y="342.0225" clip-path="url(#clipPath2)" stroke="none"/>
      <rect x="337.3139" width="97.2363" height="1" y="342.0225" clip-path="url(#clipPath2)" stroke="none"/>
      <rect x="337.3139" y="371.0225" clip-path="url(#clipPath2)" fill="rgb(178,142,0)" width="98.2363" height="1" stroke="none"/>
      <rect x="434.5501" y="342.0225" clip-path="url(#clipPath2)" fill="rgb(178,142,0)" width="1" height="29" stroke="none"/>
      <rect x="218.144" y="508.7556" clip-path="url(#clipPath2)" fill="rgb(255,204,0)" width="76.2848" height="29.9101" stroke="none"/>
    </g>
    <g stroke-miterlimit="1.45" font-family="sans-serif" transform="matrix(1,0,0,1,-182,-307)" stroke-linecap="butt">
      <text x="226.2249" xml:space="preserve" y="528.2458" clip-path="url(#clipPath2)" stroke="none">chair pose</text>
    </g>
    <g fill="yellow" transform="matrix(1,0,0,1,-182,-307)" stroke="yellow">
      <rect x="218.144" width="1" height="29.9101" y="508.7556" clip-path="url(#clipPath2)" stroke="none"/>
      <rect x="219.144" width="74.2848" height="1" y="508.7556" clip-path="url(#clipPath2)" stroke="none"/>
      <rect x="219.144" y="537.6657" clip-path="url(#clipPath2)" fill="rgb(178,142,0)" width="75.2848" height="1" stroke="none"/>
      <rect x="293.4288" y="508.7556" clip-path="url(#clipPath2)" fill="rgb(178,142,0)" width="1" height="28.9101" stroke="none"/>
      <rect x="270.8576" y="687.9775" clip-path="url(#clipPath2)" fill="rgb(255,204,0)" width="76.2848" height="30" stroke="none"/>
    </g>
    <g stroke-miterlimit="1.45" font-family="sans-serif" transform="matrix(1,0,0,1,-182,-307)" stroke-linecap="butt">
      <text x="276.4717" xml:space="preserve" y="707.5127" clip-path="url(#clipPath2)" stroke="none">wheel pose</text>
    </g>
    <g fill="yellow" transform="matrix(1,0,0,1,-182,-307)" stroke="yellow">
      <rect x="270.8576" width="1" height="30" y="687.9775" clip-path="url(#clipPath2)" stroke="none"/>
      <rect x="271.8576" width="74.2848" height="1" y="687.9775" clip-path="url(#clipPath2)" stroke="none"/>
      <rect x="271.8576" y="716.9775" clip-path="url(#clipPath2)" fill="rgb(178,142,0)" width="75.2848" height="1" stroke="none"/>
      <rect x="346.1424" y="687.9775" clip-path="url(#clipPath2)" fill="rgb(178,142,0)" width="1" height="29" stroke="none"/>
      <rect x="485.4288" y="615.4888" clip-path="url(#clipPath2)" fill="rgb(255,204,0)" width="76.2848" height="30" stroke="none"/>
    </g>
    <g stroke-miterlimit="1.45" font-family="sans-serif" transform="matrix(1,0,0,1,-182,-307)" stroke-linecap="butt">
      <text x="497.1571" xml:space="preserve" y="635.0239" clip-path="url(#clipPath2)" stroke="none">warrior 2</text>
    </g>
    <g fill="yellow" transform="matrix(1,0,0,1,-182,-307)" stroke="yellow">
      <rect x="485.4288" width="1" height="30" y="615.4888" clip-path="url(#clipPath2)" stroke="none"/>
      <rect x="486.4288" width="74.2848" height="1" y="615.4888" clip-path="url(#clipPath2)" stroke="none"/>
      <rect x="486.4288" y="644.4888" clip-path="url(#clipPath2)" fill="rgb(178,142,0)" width="75.2848" height="1" stroke="none"/>
      <rect x="560.7136" y="615.4888" clip-path="url(#clipPath2)" fill="rgb(178,142,0)" width="1" height="29" stroke="none"/>
      <rect x="559.0712" y="540" clip-path="url(#clipPath2)" fill="rgb(255,204,0)" width="119.3229" height="24" stroke="none"/>
    </g>
    <g stroke-miterlimit="1.45" font-family="sans-serif" transform="matrix(1,0,0,1,-182,-307)" stroke-linecap="butt">
      <text x="571.5999" xml:space="preserve" y="556.5352" clip-path="url(#clipPath2)" stroke="none">peaceful warrior</text>
    </g>
    <g fill="yellow" transform="matrix(1,0,0,1,-182,-307)" stroke="yellow">
      <rect x="559.0712" width="1" height="24" y="540" clip-path="url(#clipPath2)" stroke="none"/>
      <rect x="560.0712" width="117.3229" height="1" y="540" clip-path="url(#clipPath2)" stroke="none"/>
      <rect x="560.0712" y="563" clip-path="url(#clipPath2)" fill="rgb(178,142,0)" width="118.3229" height="1" stroke="none"/>
      <rect x="677.3941" y="540" clip-path="url(#clipPath2)" fill="rgb(178,142,0)" width="1" height="23" stroke="none"/>
    </g>
    <g stroke-linecap="butt" transform="matrix(1,0,0,1,-182,-307)" stroke-miterlimit="1.45">
      <path fill="none" d="M323.0302 992.75 L373.2498 978.5575" clip-path="url(#clipPath2)"/>
      <path fill="none" d="M304.0573 938.9729 L373.3017 962.0543" clip-path="url(#clipPath2)"/>
      <path fill="none" d="M293.5893 948.9585 L303.5598 982.0184" clip-path="url(#clipPath2)"/>
      <path fill="none" d="M426.8595 960.5173 L466.9201 944.8746" clip-path="url(#clipPath2)"/>
      <path fill="none" d="M467.8546 914.9658 L423.2491 896.9736" clip-path="url(#clipPath2)"/>
      <path fill="none" d="M397.7128 955.9849 L388.4302 896.9741" clip-path="url(#clipPath2)"/>
      <path fill="none" d="M375.8832 896.9983 L318.2529 981.966" clip-path="url(#clipPath2)"/>
      <path fill="none" d="M358.1032 896.9707 L304.0708 925.9365" clip-path="url(#clipPath2)"/>
      <path fill="none" d="M543.1872 930.8691 L637.1079 933.0661" clip-path="url(#clipPath2)"/>
      <path fill="none" d="M527.8686 944.9834 L561.2663 966.9667" clip-path="url(#clipPath2)"/>
      <path fill="none" d="M425.7166 866.9844 L483.8894 844.9844" clip-path="url(#clipPath2)"/>
      <path fill="none" d="M578.0892 966.9482 L529.5474 844.9921" clip-path="url(#clipPath2)"/>
      <path fill="none" d="M510.4554 844.9519 L413.1955 955.9935" clip-path="url(#clipPath2)"/>
      <path fill="none" d="M520.798 844.9678 L507.8434 914.9929" clip-path="url(#clipPath2)"/>
      <path fill="none" d="M613.3723 866.6841 L560.2721 844.9792" clip-path="url(#clipPath2)"/>
      <path fill="none" d="M573.7875 824.5407 L619.2241 819.6213" clip-path="url(#clipPath2)"/>
      <path fill="none" d="M540.5957 815.0057 L641.2487 726.489" clip-path="url(#clipPath2)"/>
      <path fill="none" d="M655.1907 726.4727 L657.0229 800.4933" clip-path="url(#clipPath2)"/>
      <path fill="none" d="M658.539 702.4932 L667.6599 672.4756" clip-path="url(#clipPath2)"/>
      <path fill="none" d="M679.8043 642.4595 L694.9537 612.4644" clip-path="url(#clipPath2)"/>
      <path fill="none" d="M702.5173 582.4866 L702.5173 501.0005" clip-path="url(#clipPath2)"/>
      <path fill="none" d="M399.6634 896.9897 L490.1762 996.9584" clip-path="url(#clipPath2)"/>
      <path fill="none" d="M480.2541 1002.6785 L426.8902 981.5806" clip-path="url(#clipPath2)"/>
      <path fill="none" d="M527.2599 1003.2031 L557.3022 991.9788" clip-path="url(#clipPath2)"/>
      <path fill="none" d="M423.0704 1032.9028 L480.2491 1018.0773" clip-path="url(#clipPath2)"/>
      <path fill="none" d="M504.7465 1056.9482 L504.0983 1026.9531" clip-path="url(#clipPath2)"/>
      <path fill="none" d="M610.8929 1034.104 L527.2853 1016.8339" clip-path="url(#clipPath2)"/>
      <path fill="none" d="M415.3141 687.9535 L388.3344 866.9615" clip-path="url(#clipPath2)"/>
      <path fill="none" d="M305.4224 837.9724 L358.5451 866.9582" clip-path="url(#clipPath2)"/>
      <path fill="none" d="M272.5169 807.9482 L261.6913 777.9531" clip-path="url(#clipPath2)"/>
      <path fill="none" d="M411.002 657.9556 L381.4988 590.49" clip-path="url(#clipPath2)"/>
      <path fill="none" d="M346.8882 486.0414 L370.2325 560.4894" clip-path="url(#clipPath2)"/>
      <path fill="none" d="M386.3518 560.4919 L484.4171 431.9386" clip-path="url(#clipPath2)"/>
      <path fill="none" d="M530.5464 402.0315 L585.2884 378.4642" clip-path="url(#clipPath2)"/>
      <path fill="none" d="M492.7894 431.9384 L482.6241 481.9563" clip-path="url(#clipPath2)"/>
      <path fill="none" d="M459.5675 511.9816 L394.9106 560.4786" clip-path="url(#clipPath2)"/>
      <path fill="none" d="M498.1705 402.025 L506.0052 351.9718" clip-path="url(#clipPath2)"/>
      <path fill="none" d="M413.4333 372.0259 L468.4315 402.0302" clip-path="url(#clipPath2)"/>
      <path fill="none" d="M280.6534 508.7635 L317.7549 486.0046" clip-path="url(#clipPath2)"/>
      <path fill="none" d="M290.5525 538.6586 L340.5273 560.4592" clip-path="url(#clipPath2)"/>
      <path fill="none" d="M295.8474 717.9482 L269.4798 747.9604" clip-path="url(#clipPath2)"/>
      <path fill="none" d="M334.3284 717.9689 L498.2295 814.9783" clip-path="url(#clipPath2)"/>
      <path fill="none" d="M316.7421 688.0037 L367.1867 590.4401" clip-path="url(#clipPath2)"/>
      <path fill="none" d="M518.6191 615.4622 L484.5189 511.9906" clip-path="url(#clipPath2)"/>
      <path fill="none" d="M604.1657 564.0148 L541.7719 615.4769" clip-path="url(#clipPath2)"/>
    </g>
  </g>
</svg>
